<?xml version="1.0" standalone="no"?>
<!DOCTYPE svg PUBLIC "-//W3C//DTD SVG 20010904//EN"
 "http://www.w3.org/TR/2001/REC-SVG-20010904/DTD/svg10.dtd">
<svg version="1.0" xmlns="http://www.w3.org/2000/svg"
 width="80.000000pt" height="80.000000pt" viewBox="0 0 80.000000 80.000000"
 preserveAspectRatio="xMidYMid meet">
<metadata>
Created by potrace 1.15, written by Peter Selinger 2001-2017
</metadata>
<g transform="translate(0.000000,80.000000) scale(0.100000,-0.100000)"
fill="#000000" stroke="none">
<path d="M652 728 c-7 -7 -12 -41 -12 -80 0 -37 -4 -68 -9 -68 -12 0 -48 58
-56 93 -10 38 -25 44 -46 18 -43 -53 -32 -150 21 -195 36 -30 36 -33 8 -63
-12 -13 -17 -23 -11 -23 18 0 53 46 59 79 4 21 10 29 16 23 15 -15 -10 -79
-39 -100 -26 -19 -26 -19 -74 14 -27 18 -62 35 -79 39 -19 4 -30 13 -30 24 0
9 -16 33 -36 52 l-36 34 7 -62 c4 -37 3 -69 -4 -81 -25 -47 -167 -70 -211 -34
-15 12 -24 34 -29 72 -6 43 -10 50 -16 35 -5 -11 -17 -32 -27 -47 -13 -19 -17
-35 -12 -54 5 -19 4 -25 -5 -20 -15 10 -14 83 2 93 6 4 18 20 26 35 8 15 19
25 25 21 6 -3 -2 8 -17 24 -31 33 -32 59 -5 77 13 8 22 6 37 -8 22 -20 30 -9
9 12 -15 15 -51 15 -66 0 -15 -15 -16 -60 -2 -74 7 -7 3 -23 -10 -49 -24 -47
-26 -122 -4 -153 10 -14 25 -22 44 -22 27 0 29 -2 23 -30 -13 -66 48 -157 133
-198 19 -8 34 -21 34 -28 0 -20 48 -24 180 -15 122 9 180 21 180 40 0 5 -17
12 -37 16 -55 10 -59 16 -21 34 40 18 107 90 134 141 11 21 19 61 20 102 2 37
8 76 13 87 16 30 13 82 -9 153 -22 72 -49 105 -68 86z m26 -81 c-9 -6 -8 -7 4
-3 13 4 20 -2 24 -19 11 -44 11 -90 0 -110 -5 -11 -9 -23 -8 -27 3 -13 -10 -9
-32 10 -19 17 -19 17 -3 -8 17 -24 24 -50 10 -37 -11 12 -43 -25 -43 -49 0
-35 17 -38 34 -7 l15 28 1 -28 c0 -32 -21 -77 -46 -98 -16 -13 -16 -12 -6 7 6
12 8 24 5 28 -12 12 -41 6 -54 -11 -11 -15 -11 -16 1 -5 8 6 20 12 27 12 21 0
15 -18 -9 -26 -22 -7 -22 -7 -3 -15 14 -5 15 -8 4 -8 -23 -1 -74 -58 -57 -64
7 -3 -3 -12 -26 -22 -27 -11 -42 -13 -49 -6 -15 15 -81 14 -120 -2 -41 -17
-68 -12 -60 11 5 14 3 14 -17 -3 l-23 -20 12 22 c6 13 8 23 4 23 -4 0 -2 4 5
9 10 6 7 10 -11 15 -14 3 -32 19 -40 35 l-14 29 43 6 c24 3 62 15 84 26 l41
21 19 -43 20 -43 -3 52 -2 52 34 -32 c19 -18 31 -26 27 -19 -5 7 -9 24 -11 38
-1 14 -15 38 -31 55 -25 26 -26 29 -8 29 11 0 51 -20 88 -45 37 -24 66 -38 63
-31 -3 8 6 19 20 27 47 25 68 96 37 130 -9 10 -13 23 -9 29 6 9 9 9 15 0 11
-18 33 74 25 109 -10 45 5 60 22 21 11 -27 11 -35 1 -43z m-288 -172 c0 -96
-56 -139 -180 -139 -81 0 -157 12 -166 25 -2 5 2 22 11 39 8 16 11 30 6 30 -6
0 -8 7 -5 15 4 8 10 12 15 9 5 -3 7 -10 3 -15 -3 -6 15 -30 40 -55 44 -42 72
-60 46 -29 -11 13 -10 14 6 9 10 -4 25 -12 33 -18 12 -9 13 -8 6 3 -6 11 -3
13 19 7 15 -4 26 -2 26 4 0 5 7 10 16 10 9 0 29 9 45 21 26 18 28 19 23 2 -5
-15 -3 -15 7 2 7 11 12 35 10 54 -2 31 0 33 15 20 13 -10 12 -5 -5 26 -28 52
-27 64 4 35 16 -15 25 -34 25 -55z"/>
</g>
</svg>
